<svg width="322" height="326" viewBox="0 0 322 326" fill="none" xmlns="http://www.w3.org/2000/svg">
<rect width="322" height="326" rx="128" fill="white"/>
<path d="M239.215 37.8849C245.199 36.7564 255.504 36.3149 261.023 38.9894C264.851 40.8462 266.146 44.1278 267.48 47.7888C277.351 74.8487 278.398 126.842 280.819 156.432C282.971 182.76 286.975 209.35 285.783 235.807C285.425 243.752 284.421 252.638 280.439 259.726C276.591 266.574 260.106 271.643 252.322 273.721C233.574 278.727 97.5955 294.109 84.9229 287.281C84.2188 287.721 83.635 288.099 82.7871 288.236C77.5538 289.077 70.6413 286.637 66.6959 283.45C49.0777 269.215 38.7868 210.158 36.7898 188.727C34.0184 158.985 37.9572 93.5172 57.9938 70.0593C61.277 66.2166 69.1712 64.8268 74.1887 63.7733C100.514 58.2395 128.239 56.6011 154.869 52.5703C183.102 48.2973 210.796 41.6463 239.215 37.8849Z" fill="#1E1E1E"/>
<path d="M209.71 82.7572C215.982 81.7435 228.947 80.6007 234.613 83.7087C237.995 85.5639 239.887 91.9488 241.018 95.3197C246.251 110.918 259.079 219.505 252.633 228.882C245.836 238.775 178.516 244.683 164.184 246.772C148.682 249.031 133.234 251.766 117.792 254.37C109.916 255.258 102.691 255.902 96.0145 251.065C81.9069 240.847 74.7787 203.282 72.8068 187.492C70.4502 168.629 70.8784 116.999 83.4724 102.379C85.3707 100.176 87.4228 99.1513 90.2343 98.3655C103.283 94.722 118.429 93.9155 131.983 92.1783C157.854 88.7675 183.764 85.6277 209.71 82.7572Z" fill="white"/>
<path d="M181.751 112.665C189.926 111.819 204.189 110.115 211.363 114.114C216.414 116.929 219.255 126.039 220.65 131.032C222.814 138.782 223.532 146.971 225.014 154.87C227.255 166.806 231.197 179.583 231.287 191.728C231.326 197.047 230.595 203.408 227.538 208.012C225.869 210.526 223.873 211.633 221.04 212.695C211.597 216.232 200.568 217.368 190.592 219.112C175.118 221.678 159.696 224.508 144.329 227.6C133.68 229.996 120.676 232.997 109.97 229.747C106.848 228.799 102.563 226.923 101.151 223.935C98.5757 218.477 97.8632 211.469 97.6006 205.52C96.9801 191.409 99.3383 176.868 100.014 162.745C100.464 153.335 99.4721 143.781 100.176 134.421C100.397 131.477 100.772 128.734 102.001 126.004C118.885 115.064 160.647 114.055 181.751 112.665Z" fill="#1E1E1E"/>
<path d="M165.989 144.365C168.687 144.528 171.724 144.875 174.235 145.839C179.961 148.049 184.464 152.43 186.66 157.932C189.175 164.098 189.296 171.546 186.292 177.576C182.719 184.741 176.454 188.221 168.904 190.871C163.507 191.295 158.113 192.14 153.365 189.003C148.458 185.761 145.988 180.577 145.138 175.086C143.944 167.366 144.293 157.968 149.445 151.51C153.747 146.115 159.267 145.164 165.989 144.365Z" fill="white"/>
</svg>
